<svg width="15" height="15" viewBox="0 0 15 15" fill="none" xmlns="http://www.w3.org/2000/svg">
<path d="M7.5 15C3.36279 15 0 11.6372 0 7.5C0 3.36279 3.36279 0 7.5 0C11.6372 0 15 3.36279 15 7.5C15 11.6372 11.6372 15 7.5 15ZM7.5 1.04651C3.94186 1.04651 1.04651 3.94186 1.04651 7.5C1.04651 11.0581 3.94186 13.9535 7.5 13.9535C11.0581 13.9535 13.9535 11.0581 13.9535 7.5C13.9535 3.94186 11.0581 1.04651 7.5 1.04651Z" fill="white"/>
<path d="M6.50866 9.99765C6.36913 9.99765 6.23657 9.94184 6.13889 9.84416L4.16444 7.86974C3.96211 7.66742 3.96211 7.33254 4.16444 7.13021C4.36677 6.92788 4.70165 6.92788 4.90397 7.13021L6.50866 8.73486L10.0947 5.14881C10.297 4.94649 10.6319 4.94649 10.8342 5.14881C11.0366 5.35114 11.0366 5.68602 10.8342 5.88835L6.87843 9.84416C6.78075 9.94184 6.6482 9.99765 6.50866 9.99765Z" fill="white"/>
</svg>
