<svg width="16" height="17" viewBox="0 0 16 17" fill="none" xmlns="http://www.w3.org/2000/svg">
<path fill-rule="evenodd" clip-rule="evenodd" d="M8.80804 0.573466L10.4846 2.24947L12.8572 2.25004C13.1603 2.25004 13.451 2.37045 13.6653 2.58477C13.8796 2.7991 14 3.08979 14 3.39289V5.76432L15.6766 7.44204C15.8909 7.65635 16.0112 7.94699 16.0112 8.25004C16.0112 8.55308 15.8909 8.84372 15.6766 9.05804L14 10.7358V13.1072C14 13.4103 13.8796 13.701 13.6653 13.9153C13.451 14.1296 13.1603 14.25 12.8572 14.25H10.4858L8.80804 15.9266C8.59372 16.1409 8.30308 16.2612 8.00004 16.2612C7.69699 16.2612 7.40635 16.1409 7.19204 15.9266L5.51432 14.25H3.14289C2.83979 14.25 2.5491 14.1296 2.33477 13.9153C2.12045 13.701 2.00004 13.4103 2.00004 13.1072V10.7346L0.322894 9.05804C0.108642 8.84372 -0.0117187 8.55308 -0.0117188 8.25004C-0.0117187 7.94699 0.108642 7.65635 0.322894 7.44204L1.99947 5.76432L2.00004 3.39289C2.00004 3.08979 2.12045 2.7991 2.33477 2.58477C2.5491 2.37045 2.83979 2.25004 3.14289 2.25004H5.51489L7.19204 0.572894C7.40635 0.358642 7.69699 0.238281 8.00004 0.238281C8.30308 0.238281 8.59372 0.359213 8.80804 0.573466Z" fill="#AFCD81"/>
</svg>
